<svg xmlns="http://www.w3.org/2000/svg" viewBox="0 0 202 202">
  <defs>
    <linearGradient id="dark" x1="68" y1="198" x2="128" y2="95" gradientUnits="userSpaceOnUse"><stop stop-color="#212121"/><stop offset="1" stop-color="#4b4a4a"/></linearGradient>
    <linearGradient id="blue" x1="79" y1="3" x2="18" y2="108" gradientUnits="userSpaceOnUse"><stop stop-color="#006db6"/><stop offset="1" stop-color="#0093d3"/></linearGradient>
  </defs>
  <g transform="translate(21)">
    <path fill="url(#dark)" d="M142.54 142.78l-25.62 44.39a29.33 29.33 0 0 1-25.39 14.66H48.41a14.46 14.46 0 0 1-12.52-21.69l60.05-104a14.46 14.46 0 0 1 25 0l21.56 37.36a29.29 29.29 0 0 1 .04 29.28Z"/>
    <path fill="url(#blue)" d="M98.05 0H54.94a29.31 29.31 0 0 0-25.39 14.66L3.93 59.05a29.29 29.29 0 0 0 0 29.31l21.56 37.36a14.46 14.46 0 0 0 25 0l60-104A14.46 14.46 0 0 0 98.05 0Z"/>
  </g>
</svg>
