<svg xmlns="http://www.w3.org/2000/svg" width="900" height="560" viewBox="0 0 900 560" role="img" aria-labelledby="title desc">
  <title id="title">Spaces Coworking floor plan preview</title>
  <desc id="desc">A simplified top-down floor plan showing desks, cubicles, rooms, reception, lounge, and meeting areas.</desc>
  <rect width="900" height="560" rx="28" fill="#f4f1e8"/>
  <rect x="38" y="42" width="824" height="476" rx="22" fill="#ffffff" stroke="#d4cfc2" stroke-width="3"/>
  <rect x="70" y="78" width="250" height="158" rx="14" fill="#e8f0ea" stroke="#5b7b66" stroke-width="2"/>
  <text x="94" y="112" font-family="Arial, sans-serif" font-size="22" font-weight="700" fill="#20362a">Flexible Desk</text>
  <g fill="#5b7b66">
    <rect x="96" y="138" width="52" height="28" rx="6"/>
    <rect x="166" y="138" width="52" height="28" rx="6"/>
    <rect x="236" y="138" width="52" height="28" rx="6"/>
    <rect x="96" y="184" width="52" height="28" rx="6"/>
    <rect x="166" y="184" width="52" height="28" rx="6"/>
    <rect x="236" y="184" width="52" height="28" rx="6"/>
  </g>
  <rect x="348" y="78" width="210" height="158" rx="14" fill="#edf4f7" stroke="#416d80" stroke-width="2"/>
  <text x="372" y="112" font-family="Arial, sans-serif" font-size="22" font-weight="700" fill="#1f3e4a">Dedicated</text>
  <g fill="#416d80">
    <rect x="382" y="138" width="136" height="24" rx="6"/>
    <rect x="382" y="178" width="136" height="24" rx="6"/>
  </g>
  <rect x="586" y="78" width="244" height="158" rx="14" fill="#f6ece5" stroke="#9b6548" stroke-width="2"/>
  <text x="610" y="112" font-family="Arial, sans-serif" font-size="22" font-weight="700" fill="#5c3424">Personal Desks</text>
  <g fill="#9b6548">
    <rect x="620" y="140" width="70" height="54" rx="8"/>
    <rect x="720" y="140" width="70" height="54" rx="8"/>
  </g>
  <rect x="70" y="268" width="168" height="104" rx="14" fill="#f3f5ea" stroke="#79864a" stroke-width="2"/>
  <text x="92" y="306" font-family="Arial, sans-serif" font-size="20" font-weight="700" fill="#444e20">Cubicle</text>
  <text x="92" y="336" font-family="Arial, sans-serif" font-size="16" fill="#444e20">4 seats</text>
  <rect x="266" y="268" width="128" height="104" rx="14" fill="#eef1fb" stroke="#56699b" stroke-width="2"/>
  <text x="292" y="306" font-family="Arial, sans-serif" font-size="20" font-weight="700" fill="#2d3b68">Room</text>
  <text x="292" y="336" font-family="Arial, sans-serif" font-size="16" fill="#2d3b68">5 seats</text>
  <rect x="422" y="268" width="128" height="104" rx="14" fill="#eef1fb" stroke="#56699b" stroke-width="2"/>
  <text x="448" y="306" font-family="Arial, sans-serif" font-size="20" font-weight="700" fill="#2d3b68">Room</text>
  <text x="448" y="336" font-family="Arial, sans-serif" font-size="16" fill="#2d3b68">7 seats</text>
  <rect x="578" y="268" width="128" height="104" rx="14" fill="#eef1fb" stroke="#56699b" stroke-width="2"/>
  <text x="604" y="306" font-family="Arial, sans-serif" font-size="20" font-weight="700" fill="#2d3b68">Room</text>
  <text x="604" y="336" font-family="Arial, sans-serif" font-size="16" fill="#2d3b68">7 seats</text>
  <rect x="734" y="268" width="96" height="104" rx="14" fill="#f8eeee" stroke="#954d52" stroke-width="2"/>
  <text x="754" y="306" font-family="Arial, sans-serif" font-size="20" font-weight="700" fill="#673034">Room</text>
  <text x="754" y="336" font-family="Arial, sans-serif" font-size="16" fill="#673034">11 seats</text>
  <rect x="70" y="404" width="230" height="78" rx="14" fill="#eef2f0" stroke="#7b827e" stroke-width="2"/>
  <text x="94" y="452" font-family="Arial, sans-serif" font-size="22" font-weight="700" fill="#333a36">Reception</text>
  <rect x="330" y="404" width="220" height="78" rx="14" fill="#f2eee6" stroke="#8f7a58" stroke-width="2"/>
  <text x="354" y="452" font-family="Arial, sans-serif" font-size="22" font-weight="700" fill="#5a4729">Lounge</text>
  <rect x="580" y="404" width="250" height="78" rx="14" fill="#edf4f7" stroke="#416d80" stroke-width="2"/>
  <text x="604" y="452" font-family="Arial, sans-serif" font-size="22" font-weight="700" fill="#1f3e4a">Executive Room</text>
  <path d="M320 248h244M564 248v154M238 390h496" stroke="#d4cfc2" stroke-width="6" stroke-linecap="round"/>
</svg>
