<svg xmlns="http://www.w3.org/2000/svg" xmlns:xlink="http://www.w3.org/1999/xlink" viewBox="0 0 663.81 201.83"><defs><style>.cls-1{fill:url(#linear-gradient);}.cls-2{fill:url(#linear-gradient-2);}.cls-3{fill:url(#linear-gradient-3);}.cls-4{fill:url(#linear-gradient-4);}</style><linearGradient id="linear-gradient" x1="67.13" y1="197.81" x2="128.34" y2="94.75" gradientUnits="userSpaceOnUse"><stop offset="0" stop-color="#212121"/><stop offset="1" stop-color="#4b4a4a"/></linearGradient><linearGradient id="linear-gradient-2" x1="78.87" y1="3.26" x2="17.86" y2="108.4" gradientUnits="userSpaceOnUse"><stop offset="0" stop-color="#006db6"/><stop offset="1" stop-color="#0093d3"/></linearGradient><linearGradient id="linear-gradient-3" x1="621.79" y1="141.07" x2="212.5" y2="71.77" xlink:href="#linear-gradient"/><linearGradient id="linear-gradient-4" x1="659.77" y1="115.83" x2="647.33" y2="131.68" xlink:href="#linear-gradient-2"/></defs><g id="Layer_2" data-name="Layer 2"><g id="Layer_1-2" data-name="Layer 1"><path class="cls-1" d="M142.54,142.78l-25.62,44.39a29.33,29.33,0,0,1-25.39,14.66H48.41a14.46,14.46,0,0,1-12.52-21.69l60.05-104a14.46,14.46,0,0,1,25,0l21.56,37.36A29.29,29.29,0,0,1,142.54,142.78Z"/><path class="cls-2" d="M98.05,0H54.94A29.31,29.31,0,0,0,29.55,14.66L3.93,59.05a29.29,29.29,0,0,0,0,29.31l21.56,37.36a14.46,14.46,0,0,0,25,0l60-104A14.46,14.46,0,0,0,98.05,0Z"/><path class="cls-3" d="M201.88,125.38v-2.31c0-5.29,2.85-7.77,7.72-6.77C227.08,120,245,121.17,245,112c0-3.56-2.33-5.54-7.35-7l-15.75-4.47c-14.69-4.13-21-12.22-21-23.38,0-23.21,27.22-28.17,53.53-21,4.06,1.07,5.94,4.05,5.94,8.51v2c0,5.37-2.86,7.68-7.73,6.52-14.55-3.46-31.8-4.29-31.8,3.31,0,2.73,2,4.63,5.32,5.54l16.88,4.79c14.7,4.13,21.82,12.06,21.82,24.62,0,25.52-30.37,30.24-57.14,22.47C203.75,132.73,201.88,129.84,201.88,125.38ZM345.22,95.22c0,31.49-15.59,42.06-41.92,42.06-3.3,0-6.83-.16-10.42-.5v24.46c0,4.87-2.48,7.6-6.9,7.6h-7c-4.43,0-6.9-2.73-6.9-7.6V79c0-18.5,9.37-25.94,31.26-25.94C329.63,53.09,345.22,63.75,345.22,95.22Zm-20.84,0c0-17.1-5.85-22.79-19.65-22.79-10.65,0-11.85,3.3-11.85,11.07V117a91.91,91.91,0,0,0,11.7.91C318.53,117.94,324.38,112.33,324.38,95.22Zm96.39-10.41v27.27c0,17.18-7.12,23.71-23.23,23.71h-17c-18.3,0-29.48-5.37-29.48-24.78s11.26-24.87,29.48-24.87h19.42V84.81c0-9.08-6.52-13-17.48-13a94.55,94.55,0,0,0-19.34,2.56c-4.72,1-7.57-1.4-7.57-6.69V64.57c0-4.54,2.32-7.51,7.19-8.59a103.78,103.78,0,0,1,22.73-2.89C405.78,53.09,420.77,62.59,420.77,84.81Zm-20.84,26.11v-8.34H381.56c-9.07,0-10.95,2.31-10.95,8.43s1.88,8.34,10.88,8.34h10.94C398.88,119.35,399.93,116.46,399.93,110.92ZM450,95.22c0,16.28,5.78,23,19.8,23a65.63,65.63,0,0,0,12.45-1.32c4.8-.82,7.58,1.49,7.58,6.78v2.81c0,4.46-1.89,7.43-5.85,8.42a68,68,0,0,1-17.55,2.4c-22.12,0-37.56-13.72-37.56-42.06s15.44-42.13,37.56-42.13A68,68,0,0,1,484,55.49c4,1,5.85,4,5.85,8.42v2.81c0,5.29-3.3,7.44-8.93,6.44a72.79,72.79,0,0,0-11.1-1.07C455.76,72.09,450,79,450,95.22Zm98.87,7.44-31.73,3.63c2.7,9.26,9.53,12.56,19.5,12.56a68.16,68.16,0,0,0,17.17-2.64c4.88-1.24,7.81,1.07,7.81,6.45v2.47c0,4.46-1.88,7.36-5.85,8.51a81,81,0,0,1-22.8,3.64c-22.73,0-37.94-13.63-37.94-42.06,0-26.84,12.89-42.13,38.08-42.13,21.15,0,33.67,10.9,33.67,31.56C566.76,96.22,562.34,101.09,548.85,102.66ZM547,82.5c0-7.85-4.35-12.06-13.95-12.06-10.41,0-16,5.2-17.09,19.17l25.87-2.9C546.22,86.22,547,85.31,547,82.5Zm25.69,42.88v-2.31c0-5.29,2.85-7.77,7.72-6.77,17.48,3.71,35.4,4.87,35.4-4.3,0-3.56-2.33-5.54-7.35-7l-15.75-4.47c-14.69-4.13-21-12.22-21-23.38,0-23.21,27.22-28.17,53.53-21,4.06,1.07,5.92,4.05,5.92,8.51v2c0,5.37-2.84,7.68-7.71,6.52-14.55-3.46-31.8-4.29-31.8,3.31,0,2.73,1.95,4.63,5.32,5.54L613.9,86.8c14.7,4.13,21.82,12.06,21.82,24.62,0,25.52-30.37,30.24-57.14,22.47C574.6,132.73,572.73,129.84,572.73,125.38Z"/><circle class="cls-4" cx="653.24" cy="124.15" r="10.57"/></g></g></svg>